# xmcd CD database file
#
# Track frame offsets:
#	182
#	5252
#	50032
#	63130
#	80765
#	95992
#
# Disc length: 2674 seconds
#
# Revision: 0
# Processed by: cddbd v1.5.1PL2 Copyright (c) Steve Scherf et al.
# Submitted via: CDex 1.51
#
DISCID=4a0a7006
DTITLE=Canned Heat - The Boogie Assault - Canned Heat Live In Australia
DYEAR=1900
DGENRE=Blues
TTITLE0=On The Road Again
TTITLE1=Amphetaming Annie
TTITLE2=Going Up The Country
TTITLE3=Let's Work Together
TTITLE4=Kings Of The Boogie
TTITLE5=Refried Hockey Boogie
EXTD=
EXTT0=
EXTT1=
EXTT2=
EXTT3=
EXTT4=
EXTT5=
PLAYORDER=
